<?xml version="1.0" standalone="no"?>
<!DOCTYPE svg PUBLIC "-//W3C//DTD SVG 20010904//EN"
 "http://www.w3.org/TR/2001/REC-SVG-20010904/DTD/svg10.dtd">
<svg version="1.0" xmlns="http://www.w3.org/2000/svg"
 width="512.000000pt" height="512.000000pt" viewBox="0 0 512.000000 512.000000"
 preserveAspectRatio="xMidYMid meet">
<metadata>
Created by potrace 1.11, written by Peter Selinger 2001-2013
</metadata>
<g transform="translate(0.000000,512.000000) scale(0.100000,-0.100000)"
fill="#000000" stroke="none">
<path d="M782 4319 c-142 -28 -266 -137 -317 -279 -15 -41 -16 -177 -15 -1394
1 -1325 1 -1351 21 -1409 43 -128 138 -223 267 -266 l62 -21 1778 2 1777 3 66
31 c114 54 190 138 228 251 20 58 20 84 21 1409 l2 1349 -21 55 c-43 111 -138
207 -248 252 l-58 23 -1760 1 c-968 1 -1779 -2 -1803 -7z m899 -198 c87 -28
161 -82 209 -153 56 -84 70 -140 70 -275 l0 -113 63 0 c77 0 124 -23 154 -76
23 -39 23 -42 23 -474 0 -432 0 -435 -23 -474 -45 -78 -26 -76 -613 -76 l-521
0 -33 23 c-18 12 -43 35 -54 50 -20 28 -21 40 -24 455 -2 274 0 440 7 462 6
20 27 51 46 70 33 32 41 35 109 38 l74 4 4 128 c4 123 5 130 41 203 89 181
281 266 468 208z"/>
<path d="M1465 3956 c-102 -48 -134 -113 -135 -269 l0 -107 238 2 237 3 -1
110 c0 92 -4 117 -21 150 -64 122 -197 168 -318 111z"/>
<path d="M1490 3168 c-103 -70 -108 -197 -10 -270 88 -65 223 -4 246 110 9 46
-20 116 -63 149 -50 38 -126 43 -173 11z"/>
</g>
</svg>
