<?xml version="1.0" encoding="UTF-8" standalone="no"?>
<!-- Created with Inkscape (http://www.inkscape.org/) -->

<svg
   xmlns:dc="http://purl.org/dc/elements/1.1/"
   xmlns:cc="http://creativecommons.org/ns#"
   xmlns:rdf="http://www.w3.org/1999/02/22-rdf-syntax-ns#"
   xmlns:svg="http://www.w3.org/2000/svg"
   xmlns="http://www.w3.org/2000/svg"
   xmlns:sodipodi="http://sodipodi.sourceforge.net/DTD/sodipodi-0.dtd"
   xmlns:inkscape="http://www.inkscape.org/namespaces/inkscape"
   width="720"
   height="360"
   viewBox="0 0 190.5 95.25"
   version="1.1"
   id="svg204"
   inkscape:version="0.92.3 (d244b95, 2018-08-02)"
   sodipodi:docname="abit-donations-nano.svg">
  <defs
     id="defs198" />
  <sodipodi:namedview
     id="base"
     pagecolor="#ffffff"
     bordercolor="#666666"
     borderopacity="1.0"
     inkscape:pageopacity="0.0"
     inkscape:pageshadow="2"
     inkscape:zoom="1.0748023"
     inkscape:cx="425.13534"
     inkscape:cy="190.69562"
     inkscape:document-units="mm"
     inkscape:current-layer="layer1"
     showgrid="false"
     fit-margin-top="0"
     fit-margin-left="0"
     fit-margin-right="0"
     fit-margin-bottom="0"
     inkscape:window-width="1861"
     inkscape:window-height="1025"
     inkscape:window-x="59"
     inkscape:window-y="27"
     inkscape:window-maximized="1"
     units="px" />
  <metadata
     id="metadata201">
    <rdf:RDF>
      <cc:Work
         rdf:about="">
        <dc:format>image/svg+xml</dc:format>
        <dc:type
           rdf:resource="http://purl.org/dc/dcmitype/StillImage" />
        <dc:title></dc:title>
      </cc:Work>
    </rdf:RDF>
  </metadata>
  <g
     inkscape:label="Layer 1"
     inkscape:groupmode="layer"
     id="layer1"
     transform="translate(14.363096,-142.02975)">
    <g
       id="g29"
       transform="matrix(0.75,0,0,0.75,-3.5907741,59.319937)">
      <rect
         style="fill:#ffffff;stroke-width:0.27451739"
         y="110.27975"
         x="-14.363096"
         height="127"
         width="254"
         id="rect17" />
      <g
         transform="matrix(0.53354609,0,0,0.53354609,113.97814,165.93662)"
         id="g428">
        <circle
           style="fill:#4a90e2"
           class="st0"
           cx="4.8000002"
           cy="24.4"
           r="4.8000002"
           id="circle408" />
        <path
           style="fill:#4a90e2"
           inkscape:connector-curvature="0"
           class="st0"
           d="m 62,0.6 c -2.6,0 -4.8,2.1 -4.8,4.8 0,3.8 -0.6,4.8 -4.8,4.8 H 52 c -2.4,0.2 -4.3,2.2 -4.3,4.7 V 15 c 0,3.7 -0.7,4.6 -4.8,4.6 -0.2,0 -0.4,0 -0.5,0.1 -2.4,0.3 -4.3,2.3 -4.3,4.7 0,2.6 2.1,4.8 4.8,4.8 2.5,0 4.6,-2 4.7,-4.4 v -0.4 c 0,-3.4 1.1,-4.7 4.7,-4.8 h 0.1 c 2.5,0 4.6,-2 4.7,-4.5 v -0.3 c 0,-3.5 1.1,-4.8 4.8,-4.8 2.6,0 4.8,-2.1 4.8,-4.8 0,-2.5 -2.1,-4.6 -4.7,-4.6 z m -28.2,9.6 h -0.4 c -4.2,0 -4.8,-1 -4.8,-4.8 0,-2.6 -2.1,-4.8 -4.8,-4.8 -2.6,0 -4.8,2.1 -4.8,4.8 0,3.8 -0.6,4.7 -4.8,4.7 h -0.4 c -2.4,0.2 -4.3,2.2 -4.3,4.7 0,2.6 2.1,4.8 4.8,4.8 2.5,0 4.6,-2 4.7,-4.4 v -0.3 c 0,-3.5 1.1,-4.8 4.8,-4.8 3.7,0 4.8,1.3 4.8,4.7 0,2.6 2.1,4.8 4.8,4.8 2.7,0 4.8,-2.1 4.8,-4.8 -0.1,-2.4 -2,-4.4 -4.4,-4.6 z"
           id="path410" />
        <g
           id="g414">
          <path
             style="fill:#000034"
             inkscape:connector-curvature="0"
             class="st1"
             d="m 109.3,0.8 c -0.3,0 -0.6,0.1 -0.8,0.4 -0.2,0.2 -0.3,0.5 -0.3,0.9 V 25 L 90.7,1.4 C 90.4,1 90.1,0.8 89.7,0.8 89.3,0.8 89,0.9 88.8,1.2 88.6,1.4 88.5,1.7 88.5,2.1 v 26 c 0,0.4 0.1,0.7 0.3,0.9 0.2,0.2 0.5,0.3 0.9,0.3 0.3,0 0.6,-0.1 0.8,-0.4 0.2,-0.2 0.3,-0.5 0.3,-0.9 V 5.2 l 17.5,23.6 c 0.3,0.4 0.7,0.6 1.1,0.6 0.4,0 0.7,-0.1 0.9,-0.4 0.2,-0.2 0.3,-0.5 0.3,-0.9 v -26 c 0,-0.4 -0.1,-0.7 -0.3,-0.9 -0.3,-0.3 -0.6,-0.4 -1,-0.4 z m 92,-0.8 c -8.1,0 -14.7,6.6 -14.7,14.7 0,8.1 6.6,14.7 14.7,14.7 8.1,0 14.7,-6.6 14.7,-14.7 C 216,6.6 209.4,0 201.3,0 Z m 0,27 C 194.5,27 189,21.5 189,14.7 c 0,-6.8 5.5,-12.3 12.3,-12.3 6.8,0 12.3,5.5 12.3,12.3 0,6.8 -5.5,12.3 -12.3,12.3 z M 177,0.8 c -0.3,0 -0.6,0.1 -0.8,0.4 -0.2,0.2 -0.3,0.5 -0.3,0.9 V 25 L 158.4,1.4 c -0.3,-0.4 -0.6,-0.6 -1,-0.6 -0.4,0 -0.7,0.1 -0.9,0.4 -0.2,0.2 -0.3,0.5 -0.3,0.9 v 26 c 0,0.4 0.1,0.7 0.3,0.9 0.2,0.2 0.5,0.3 0.9,0.3 0.3,0 0.6,-0.1 0.8,-0.4 0.2,-0.2 0.3,-0.5 0.3,-0.9 V 5.2 L 176,28.8 c 0.3,0.4 0.7,0.6 1.1,0.6 0.4,0 0.7,-0.1 0.9,-0.4 0.2,-0.2 0.3,-0.5 0.3,-0.9 v -26 c 0,-0.4 -0.1,-0.7 -0.3,-0.9 -0.3,-0.3 -0.6,-0.4 -1,-0.4 z m -42.3,0.8 c -0.1,-0.3 -0.3,-0.5 -0.5,-0.6 -0.3,-0.2 -0.5,-0.2 -0.8,-0.2 -0.6,0 -1.1,0.3 -1.3,0.9 l -11.7,26.2 c -0.1,0.1 -0.1,0.3 -0.1,0.4 0,0.3 0.1,0.6 0.3,0.8 0.2,0.2 0.5,0.3 0.8,0.3 0.5,0 0.9,-0.3 1.1,-0.8 l 3.1,-7 h 15.5 l 3,7 c 0.1,0.2 0.3,0.4 0.5,0.6 0.2,0.1 0.4,0.2 0.6,0.2 0.3,0 0.6,-0.1 0.8,-0.3 0.2,-0.2 0.4,-0.4 0.4,-0.7 0,-0.2 0,-0.3 -0.1,-0.5 z m -8.2,17.9 6.8,-15.5 6.8,15.5 z"
             id="path412" />
        </g>
      </g>
      <g
         transform="matrix(0.43740423,0,0,0.43740423,-4.6699453,120.19773)"
         id="g505">
        <rect
           style="fill:#ffffff;fill-opacity:1"
           x="0"
           y="0"
           width="245"
           height="245"
           id="rect489" />
        <g
           id="elements">
          <path
             inkscape:connector-curvature="0"
             style="fill:#000000"
             d="m 7,7 h 7 v 7 H 7 Z m 7,0 h 7 v 7 h -7 z m 7,0 h 7 v 7 h -7 z m 7,0 h 7 v 7 h -7 z m 7,0 h 7 v 7 h -7 z m 7,0 h 7 v 7 h -7 z m 7,0 h 7 v 7 h -7 z m 28,0 h 7 v 7 h -7 z m 14,0 h 7 v 7 h -7 z m 28,0 h 7 v 7 h -7 z m 7,0 h 7 v 7 h -7 z m 14,0 h 7 v 7 h -7 z m 7,0 h 7 v 7 h -7 z m 7,0 h 7 v 7 h -7 z m 7,0 h 7 v 7 h -7 z m 7,0 h 7 v 7 h -7 z m 21,0 h 7 v 7 h -7 z m 7,0 h 7 v 7 h -7 z m 7,0 h 7 v 7 h -7 z m 7,0 h 7 v 7 h -7 z m 7,0 h 7 v 7 h -7 z m 7,0 h 7 v 7 h -7 z m 7,0 h 7 v 7 h -7 z M 7,14 h 7 v 7 H 7 Z m 42,0 h 7 v 7 h -7 z m 14,0 h 7 v 7 h -7 z m 14,0 h 7 v 7 h -7 z m 21,0 h 7 v 7 h -7 z m 14,0 h 7 v 7 h -7 z m 7,0 h 7 v 7 h -7 z m 14,0 h 7 v 7 h -7 z m 28,0 h 7 v 7 h -7 z m 28,0 h 7 v 7 h -7 z m 42,0 h 7 v 7 h -7 z M 7,21 h 7 v 7 H 7 Z m 14,0 h 7 v 7 h -7 z m 7,0 h 7 v 7 h -7 z m 7,0 h 7 v 7 h -7 z m 14,0 h 7 v 7 h -7 z m 42,0 h 7 v 7 h -7 z m 21,0 h 7 v 7 h -7 z m 7,0 h 7 v 7 h -7 z m 28,0 h 7 v 7 h -7 z m 14,0 h 7 v 7 h -7 z m 14,0 h 7 v 7 h -7 z m 14,0 h 7 v 7 h -7 z m 14,0 h 7 v 7 h -7 z m 7,0 h 7 v 7 h -7 z m 7,0 h 7 v 7 h -7 z m 14,0 h 7 v 7 h -7 z M 7,28 h 7 v 7 H 7 Z m 14,0 h 7 v 7 h -7 z m 7,0 h 7 v 7 h -7 z m 7,0 h 7 v 7 h -7 z m 14,0 h 7 v 7 h -7 z m 14,0 h 7 v 7 h -7 z m 7,0 h 7 v 7 h -7 z m 7,0 h 7 v 7 h -7 z m 14,0 h 7 v 7 h -7 z m 7,0 h 7 v 7 h -7 z m 7,0 h 7 v 7 h -7 z m 7,0 h 7 v 7 h -7 z m 7,0 h 7 v 7 h -7 z m 7,0 h 7 v 7 h -7 z m 21,0 h 7 v 7 h -7 z m 7,0 h 7 v 7 h -7 z m 35,0 h 7 v 7 h -7 z m 14,0 h 7 v 7 h -7 z m 7,0 h 7 v 7 h -7 z m 7,0 h 7 v 7 h -7 z m 14,0 h 7 v 7 h -7 z M 7,35 h 7 v 7 H 7 Z m 14,0 h 7 v 7 h -7 z m 7,0 h 7 v 7 h -7 z m 7,0 h 7 v 7 h -7 z m 14,0 h 7 v 7 h -7 z m 21,0 h 7 v 7 h -7 z m 28,0 h 7 v 7 h -7 z m 21,0 h 7 v 7 h -7 z m 7,0 h 7 v 7 h -7 z m 7,0 h 7 v 7 h -7 z m 7,0 h 7 v 7 h -7 z m 7,0 h 7 v 7 h -7 z m 7,0 h 7 v 7 h -7 z m 21,0 h 7 v 7 h -7 z m 14,0 h 7 v 7 h -7 z m 14,0 h 7 v 7 h -7 z m 7,0 h 7 v 7 h -7 z m 7,0 h 7 v 7 h -7 z m 14,0 h 7 v 7 h -7 z M 7,42 h 7 v 7 H 7 Z m 42,0 h 7 v 7 h -7 z m 14,0 h 7 v 7 h -7 z m 7,0 h 7 v 7 h -7 z m 14,0 h 7 v 7 h -7 z m 7,0 h 7 v 7 h -7 z m 7,0 h 7 v 7 h -7 z m 14,0 h 7 v 7 h -7 z m 21,0 h 7 v 7 h -7 z m 14,0 h 7 v 7 h -7 z m 7,0 h 7 v 7 h -7 z m 7,0 h 7 v 7 h -7 z m 14,0 h 7 v 7 h -7 z m 14,0 h 7 v 7 h -7 z m 42,0 h 7 v 7 h -7 z M 7,49 h 7 v 7 H 7 Z m 7,0 h 7 v 7 h -7 z m 7,0 h 7 v 7 h -7 z m 7,0 h 7 v 7 h -7 z m 7,0 h 7 v 7 h -7 z m 7,0 h 7 v 7 h -7 z m 7,0 h 7 v 7 h -7 z m 14,0 h 7 v 7 h -7 z m 14,0 h 7 v 7 h -7 z m 14,0 h 7 v 7 h -7 z m 14,0 h 7 v 7 h -7 z m 14,0 h 7 v 7 h -7 z m 14,0 h 7 v 7 h -7 z m 14,0 h 7 v 7 h -7 z m 14,0 h 7 v 7 h -7 z m 14,0 h 7 v 7 h -7 z m 14,0 h 7 v 7 h -7 z m 7,0 h 7 v 7 h -7 z m 7,0 h 7 v 7 h -7 z m 7,0 h 7 v 7 h -7 z m 7,0 h 7 v 7 h -7 z m 7,0 h 7 v 7 h -7 z m 7,0 h 7 v 7 h -7 z M 70,56 h 7 v 7 h -7 z m 7,0 h 7 v 7 h -7 z m 7,0 h 7 v 7 h -7 z m 21,0 h 7 v 7 h -7 z m 14,0 h 7 v 7 h -7 z m 14,0 h 7 v 7 h -7 z m 7,0 h 7 v 7 h -7 z m 14,0 h 7 v 7 h -7 z m 21,0 h 7 v 7 h -7 z M 7,63 h 7 v 7 H 7 Z m 7,0 h 7 v 7 h -7 z m 7,0 h 7 v 7 h -7 z m 7,0 h 7 v 7 h -7 z m 7,0 h 7 v 7 h -7 z m 14,0 h 7 v 7 h -7 z m 7,0 h 7 v 7 h -7 z m 7,0 h 7 v 7 h -7 z m 7,0 h 7 v 7 h -7 z m 14,0 h 7 v 7 h -7 z m 14,0 h 7 v 7 h -7 z m 7,0 h 7 v 7 h -7 z m 7,0 h 7 v 7 h -7 z m 14,0 h 7 v 7 h -7 z m 14,0 h 7 v 7 h -7 z m 42,0 h 7 v 7 h -7 z m 14,0 h 7 v 7 h -7 z m 14,0 h 7 v 7 h -7 z m 14,0 h 7 v 7 h -7 z M 35,70 h 7 v 7 h -7 z m 7,0 h 7 v 7 h -7 z m 35,0 h 7 v 7 h -7 z m 14,0 h 7 v 7 h -7 z m 7,0 h 7 v 7 h -7 z m 7,0 h 7 v 7 h -7 z m 14,0 h 7 v 7 h -7 z m 14,0 h 7 v 7 h -7 z m 7,0 h 7 v 7 h -7 z m 7,0 h 7 v 7 h -7 z m 7,0 h 7 v 7 h -7 z m 21,0 h 7 v 7 h -7 z m 7,0 h 7 v 7 h -7 z m 7,0 h 7 v 7 h -7 z m 35,0 h 7 v 7 h -7 z m 7,0 h 7 v 7 h -7 z M 7,77 h 7 v 7 H 7 Z m 21,0 h 7 v 7 h -7 z m 7,0 h 7 v 7 h -7 z m 7,0 h 7 v 7 h -7 z m 7,0 h 7 v 7 h -7 z m 7,0 h 7 v 7 h -7 z m 7,0 h 7 v 7 h -7 z m 14,0 h 7 v 7 h -7 z m 35,0 h 7 v 7 h -7 z m 14,0 h 7 v 7 h -7 z m 7,0 h 7 v 7 h -7 z m 14,0 h 7 v 7 h -7 z m 14,0 h 7 v 7 h -7 z m 28,0 h 7 v 7 h -7 z m 7,0 h 7 v 7 h -7 z m 21,0 h 7 v 7 h -7 z m 7,0 h 7 v 7 h -7 z M 21,84 h 7 v 7 h -7 z m 14,0 h 7 v 7 h -7 z m 7,0 h 7 v 7 h -7 z m 14,0 h 7 v 7 h -7 z m 35,0 h 7 v 7 h -7 z m 42,0 h 7 v 7 h -7 z m 7,0 h 7 v 7 h -7 z m 14,0 h 7 v 7 h -7 z m 7,0 h 7 v 7 h -7 z m 14,0 h 7 v 7 h -7 z m 7,0 h 7 v 7 h -7 z m 28,0 h 7 v 7 h -7 z m 7,0 h 7 v 7 h -7 z m 14,0 h 7 v 7 h -7 z M 7,91 h 7 v 7 H 7 Z m 7,0 h 7 v 7 h -7 z m 28,0 h 7 v 7 h -7 z m 7,0 h 7 v 7 h -7 z m 21,0 h 7 v 7 h -7 z m 7,0 h 7 v 7 h -7 z m 14,0 h 7 v 7 h -7 z m 7,0 h 7 v 7 h -7 z m 7,0 h 7 v 7 h -7 z m 14,0 h 7 v 7 h -7 z m 7,0 h 7 v 7 h -7 z m 7,0 h 7 v 7 h -7 z m 14,0 h 7 v 7 h -7 z m 14,0 h 7 v 7 h -7 z m 21,0 h 7 v 7 h -7 z m 21,0 h 7 v 7 h -7 z m 7,0 h 7 v 7 h -7 z m 21,0 h 7 v 7 h -7 z M 14,98 h 7 v 7 h -7 z m 7,0 h 7 v 7 h -7 z m 14,0 h 7 v 7 h -7 z m 7,0 h 7 v 7 h -7 z m 14,0 h 7 v 7 h -7 z m 49,0 h 7 v 7 h -7 z m 14,0 h 7 v 7 h -7 z m 21,0 h 7 v 7 h -7 z m 7,0 h 7 v 7 h -7 z m 14,0 h 7 v 7 h -7 z m 7,0 h 7 v 7 h -7 z m 14,0 h 7 v 7 h -7 z m 7,0 h 7 v 7 h -7 z m 28,0 h 7 v 7 h -7 z m 7,0 h 7 v 7 h -7 z m 7,0 h 7 v 7 h -7 z M 7,105 h 7 v 7 H 7 Z m 42,0 h 7 v 7 h -7 z m 7,0 h 7 v 7 h -7 z m 7,0 h 7 v 7 h -7 z m 7,0 h 7 v 7 h -7 z m 7,0 h 7 v 7 h -7 z m 7,0 h 7 v 7 h -7 z m 7,0 h 7 v 7 h -7 z m 21,0 h 7 v 7 h -7 z m 14,0 h 7 v 7 h -7 z m 7,0 h 7 v 7 h -7 z m 49,0 h 7 v 7 h -7 z m 21,0 h 7 v 7 h -7 z M 7,112 h 7 v 7 H 7 Z m 7,0 h 7 v 7 h -7 z m 42,0 h 7 v 7 h -7 z m 7,0 h 7 v 7 h -7 z m 7,0 h 7 v 7 h -7 z m 14,0 h 7 v 7 h -7 z m 28,0 h 7 v 7 h -7 z m 7,0 h 7 v 7 h -7 z m 21,0 h 7 v 7 h -7 z m 14,0 h 7 v 7 h -7 z m 21,0 h 7 v 7 h -7 z m 7,0 h 7 v 7 h -7 z m 7,0 h 7 v 7 h -7 z m 21,0 h 7 v 7 h -7 z m 7,0 h 7 v 7 h -7 z m 14,0 h 7 v 7 h -7 z M 7,119 h 7 v 7 H 7 Z m 14,0 h 7 v 7 h -7 z m 21,0 h 7 v 7 h -7 z m 7,0 h 7 v 7 h -7 z m 14,0 h 7 v 7 h -7 z m 7,0 h 7 v 7 h -7 z m 14,0 h 7 v 7 h -7 z m 14,0 h 7 v 7 h -7 z m 7,0 h 7 v 7 h -7 z m 7,0 h 7 v 7 h -7 z m 14,0 h 7 v 7 h -7 z m 7,0 h 7 v 7 h -7 z m 28,0 h 7 v 7 h -7 z m 21,0 h 7 v 7 h -7 z m 21,0 h 7 v 7 h -7 z m -189,7 h 7 v 7 h -7 z m 7,0 h 7 v 7 h -7 z m 14,0 h 7 v 7 h -7 z m 21,0 h 7 v 7 h -7 z m 35,0 h 7 v 7 h -7 z m 14,0 h 7 v 7 h -7 z m 14,0 h 7 v 7 h -7 z m 21,0 h 7 v 7 h -7 z m 7,0 h 7 v 7 h -7 z m 7,0 h 7 v 7 h -7 z m 7,0 h 7 v 7 h -7 z m 7,0 h 7 v 7 h -7 z m 21,0 h 7 v 7 h -7 z m 7,0 h 7 v 7 h -7 z m 21,0 h 7 v 7 h -7 z m 14,0 h 7 v 7 h -7 z m -210,7 h 7 v 7 h -7 z m 7,0 h 7 v 7 h -7 z m 14,0 h 7 v 7 h -7 z m 7,0 h 7 v 7 h -7 z m 7,0 h 7 v 7 h -7 z m 21,0 h 7 v 7 h -7 z m 28,0 h 7 v 7 h -7 z m 7,0 h 7 v 7 h -7 z m 7,0 h 7 v 7 h -7 z m 28,0 h 7 v 7 h -7 z m 14,0 h 7 v 7 h -7 z m 14,0 h 7 v 7 h -7 z m 49,0 h 7 v 7 h -7 z m -210,7 h 7 v 7 h -7 z m 14,0 h 7 v 7 h -7 z m 7,0 h 7 v 7 h -7 z m 7,0 h 7 v 7 h -7 z m 14,0 h 7 v 7 h -7 z m 7,0 h 7 v 7 h -7 z m 7,0 h 7 v 7 h -7 z m 21,0 h 7 v 7 h -7 z m 63,0 h 7 v 7 h -7 z m 7,0 h 7 v 7 h -7 z m 21,0 h 7 v 7 h -7 z m 14,0 h 7 v 7 h -7 z m 7,0 h 7 v 7 h -7 z m 7,0 h 7 v 7 h -7 z m 7,0 h 7 v 7 h -7 z m 14,0 h 7 v 7 h -7 z m -217,7 h 7 v 7 h -7 z m 7,0 h 7 v 7 h -7 z m 7,0 h 7 v 7 h -7 z m 14,0 h 7 v 7 h -7 z m 7,0 h 7 v 7 h -7 z m 7,0 h 7 v 7 h -7 z m 7,0 h 7 v 7 h -7 z m 7,0 h 7 v 7 h -7 z m 21,0 h 7 v 7 h -7 z m 7,0 h 7 v 7 h -7 z m 7,0 h 7 v 7 h -7 z m 7,0 h 7 v 7 h -7 z m 7,0 h 7 v 7 h -7 z m 7,0 h 7 v 7 h -7 z m 35,0 h 7 v 7 h -7 z m 42,0 h 7 v 7 h -7 z m 7,0 h 7 v 7 h -7 z m 7,0 h 7 v 7 h -7 z M 7,154 h 7 v 7 H 7 Z m 7,0 h 7 v 7 h -7 z m 14,0 h 7 v 7 h -7 z m 14,0 h 7 v 7 h -7 z m 21,0 h 7 v 7 h -7 z m 7,0 h 7 v 7 h -7 z m 56,0 h 7 v 7 h -7 z m 7,0 h 7 v 7 h -7 z m 7,0 h 7 v 7 h -7 z m 7,0 h 7 v 7 h -7 z m 21,0 h 7 v 7 h -7 z m 7,0 h 7 v 7 h -7 z m 7,0 h 7 v 7 h -7 z m 7,0 h 7 v 7 h -7 z m 21,0 h 7 v 7 h -7 z m 14,0 h 7 v 7 h -7 z m 7,0 h 7 v 7 h -7 z M 7,161 h 7 v 7 H 7 Z m 21,0 h 7 v 7 h -7 z m 7,0 h 7 v 7 h -7 z m 7,0 h 7 v 7 h -7 z m 7,0 h 7 v 7 h -7 z m 7,0 h 7 v 7 h -7 z m 14,0 h 7 v 7 h -7 z m 7,0 h 7 v 7 h -7 z m 7,0 h 7 v 7 h -7 z m 7,0 h 7 v 7 h -7 z m 7,0 h 7 v 7 h -7 z m 14,0 h 7 v 7 h -7 z m 7,0 h 7 v 7 h -7 z m 7,0 h 7 v 7 h -7 z m 7,0 h 7 v 7 h -7 z m 14,0 h 7 v 7 h -7 z m 35,0 h 7 v 7 h -7 z m 14,0 h 7 v 7 h -7 z m 7,0 h 7 v 7 h -7 z m 7,0 h 7 v 7 h -7 z m 14,0 h 7 v 7 h -7 z M 7,168 h 7 v 7 H 7 Z m 35,0 h 7 v 7 h -7 z m 35,0 h 7 v 7 h -7 z m 7,0 h 7 v 7 h -7 z m 28,0 h 7 v 7 h -7 z m 21,0 h 7 v 7 h -7 z m 21,0 h 7 v 7 h -7 z m 14,0 h 7 v 7 h -7 z m 28,0 h 7 v 7 h -7 z m 7,0 h 7 v 7 h -7 z m 14,0 h 7 v 7 h -7 z M 7,175 h 7 v 7 H 7 Z m 14,0 h 7 v 7 h -7 z m 14,0 h 7 v 7 h -7 z m 14,0 h 7 v 7 h -7 z m 14,0 h 7 v 7 h -7 z m 21,0 h 7 v 7 h -7 z m 7,0 h 7 v 7 h -7 z m 7,0 h 7 v 7 h -7 z m 7,0 h 7 v 7 h -7 z m 21,0 h 7 v 7 h -7 z m 35,0 h 7 v 7 h -7 z m 14,0 h 7 v 7 h -7 z m 7,0 h 7 v 7 h -7 z m 7,0 h 7 v 7 h -7 z m 7,0 h 7 v 7 h -7 z m 7,0 h 7 v 7 h -7 z m 7,0 h 7 v 7 h -7 z m 21,0 h 7 v 7 h -7 z m -168,7 h 7 v 7 h -7 z m 28,0 h 7 v 7 h -7 z m 28,0 h 7 v 7 h -7 z m 21,0 h 7 v 7 h -7 z m 7,0 h 7 v 7 h -7 z m 7,0 h 7 v 7 h -7 z m 7,0 h 7 v 7 h -7 z m 7,0 h 7 v 7 h -7 z m 7,0 h 7 v 7 h -7 z m 28,0 h 7 v 7 h -7 z m 14,0 h 7 v 7 h -7 z m 7,0 h 7 v 7 h -7 z m 7,0 h 7 v 7 h -7 z M 7,189 h 7 v 7 H 7 Z m 7,0 h 7 v 7 h -7 z m 7,0 h 7 v 7 h -7 z m 7,0 h 7 v 7 h -7 z m 7,0 h 7 v 7 h -7 z m 7,0 h 7 v 7 h -7 z m 7,0 h 7 v 7 h -7 z m 14,0 h 7 v 7 h -7 z m 7,0 h 7 v 7 h -7 z m 7,0 h 7 v 7 h -7 z m 21,0 h 7 v 7 h -7 z m 14,0 h 7 v 7 h -7 z m 7,0 h 7 v 7 h -7 z m 7,0 h 7 v 7 h -7 z m 7,0 h 7 v 7 h -7 z m 14,0 h 7 v 7 h -7 z m 7,0 h 7 v 7 h -7 z m 7,0 h 7 v 7 h -7 z m 7,0 h 7 v 7 h -7 z m 7,0 h 7 v 7 h -7 z m 14,0 h 7 v 7 h -7 z m 14,0 h 7 v 7 h -7 z m 7,0 h 7 v 7 h -7 z m 14,0 h 7 v 7 h -7 z M 7,196 h 7 v 7 H 7 Z m 42,0 h 7 v 7 h -7 z m 56,0 h 7 v 7 h -7 z m 7,0 h 7 v 7 h -7 z m 7,0 h 7 v 7 h -7 z m 14,0 h 7 v 7 h -7 z m 14,0 h 7 v 7 h -7 z m 7,0 h 7 v 7 h -7 z m 7,0 h 7 v 7 h -7 z m 14,0 h 7 v 7 h -7 z m 28,0 h 7 v 7 h -7 z m 7,0 h 7 v 7 h -7 z m 7,0 h 7 v 7 h -7 z m 7,0 h 7 v 7 h -7 z M 7,203 h 7 v 7 H 7 Z m 14,0 h 7 v 7 h -7 z m 7,0 h 7 v 7 h -7 z m 7,0 h 7 v 7 h -7 z m 14,0 h 7 v 7 h -7 z m 14,0 h 7 v 7 h -7 z m 7,0 h 7 v 7 h -7 z m 7,0 h 7 v 7 h -7 z m 7,0 h 7 v 7 h -7 z m 7,0 h 7 v 7 h -7 z m 7,0 h 7 v 7 h -7 z m 7,0 h 7 v 7 h -7 z m 21,0 h 7 v 7 h -7 z m 7,0 h 7 v 7 h -7 z m 14,0 h 7 v 7 h -7 z m 14,0 h 7 v 7 h -7 z m 14,0 h 7 v 7 h -7 z m 7,0 h 7 v 7 h -7 z m 7,0 h 7 v 7 h -7 z m 7,0 h 7 v 7 h -7 z m 7,0 h 7 v 7 h -7 z m 28,0 h 7 v 7 h -7 z M 7,210 h 7 v 7 H 7 Z m 14,0 h 7 v 7 h -7 z m 7,0 h 7 v 7 h -7 z m 7,0 h 7 v 7 h -7 z m 14,0 h 7 v 7 h -7 z m 14,0 h 7 v 7 h -7 z m 7,0 h 7 v 7 h -7 z m 14,0 h 7 v 7 h -7 z m 35,0 h 7 v 7 h -7 z m 21,0 h 7 v 7 h -7 z m 7,0 h 7 v 7 h -7 z m 14,0 h 7 v 7 h -7 z m 7,0 h 7 v 7 h -7 z m 7,0 h 7 v 7 h -7 z m 7,0 h 7 v 7 h -7 z m 14,0 h 7 v 7 h -7 z m 7,0 h 7 v 7 h -7 z m 7,0 h 7 v 7 h -7 z m 14,0 h 7 v 7 h -7 z M 7,217 h 7 v 7 H 7 Z m 14,0 h 7 v 7 h -7 z m 7,0 h 7 v 7 h -7 z m 7,0 h 7 v 7 h -7 z m 14,0 h 7 v 7 h -7 z m 14,0 h 7 v 7 h -7 z m 49,0 h 7 v 7 h -7 z m 7,0 h 7 v 7 h -7 z m 28,0 h 7 v 7 h -7 z m 7,0 h 7 v 7 h -7 z m 14,0 h 7 v 7 h -7 z m 7,0 h 7 v 7 h -7 z m 14,0 h 7 v 7 h -7 z m 21,0 h 7 v 7 h -7 z m 7,0 h 7 v 7 h -7 z M 7,224 h 7 v 7 H 7 Z m 42,0 h 7 v 7 h -7 z m 14,0 h 7 v 7 h -7 z m 21,0 h 7 v 7 h -7 z m 7,0 h 7 v 7 h -7 z m 14,0 h 7 v 7 h -7 z m 49,0 h 7 v 7 h -7 z m 14,0 h 7 v 7 h -7 z m 14,0 h 7 v 7 h -7 z m 14,0 h 7 v 7 h -7 z m 7,0 h 7 v 7 h -7 z m 14,0 h 7 v 7 h -7 z M 7,231 h 7 v 7 H 7 Z m 7,0 h 7 v 7 h -7 z m 7,0 h 7 v 7 h -7 z m 7,0 h 7 v 7 h -7 z m 7,0 h 7 v 7 h -7 z m 7,0 h 7 v 7 h -7 z m 7,0 h 7 v 7 h -7 z m 14,0 h 7 v 7 h -7 z m 7,0 h 7 v 7 h -7 z m 28,0 h 7 v 7 h -7 z m 14,0 h 7 v 7 h -7 z m 7,0 h 7 v 7 h -7 z m 7,0 h 7 v 7 h -7 z m 7,0 h 7 v 7 h -7 z m 14,0 h 7 v 7 h -7 z m 14,0 h 7 v 7 h -7 z m 14,0 h 7 v 7 h -7 z m 7,0 h 7 v 7 h -7 z m 7,0 h 7 v 7 h -7 z m 21,0 h 7 v 7 h -7 z m 14,0 h 7 v 7 h -7 z"
             id="path491" />
        </g>
      </g>
    </g>
  </g>
  <style
     id="style406">.st0{fill:#4a90e2}.st1{fill:#000034}</style>
</svg>
